# xmcd CD database file
#
# Track frame offsets:
#	150
#	16907
#	32872
#	46442
#	64245
#	86357
#	104942
#	118202
#	135280
#	158292
#
# Disc length: 2642 seconds
#
# Revision: 8
# Processed by: cddbd v1.4PL0 Copyright (c) Steve Scherf et al.
# Submitted via: CDex 1.40Release
#
DISCID=7e0a500a
DTITLE=Travis Tritt - T-R-O-U-B-L-E
DYEAR=1992
DGENRE=Country
TTITLE0=Looking Out For Number One
TTITLE1=Can I Trust You With My Heart
TTITLE2=T-R-O-U-B-L-E
TTITLE3=When I Touch You
TTITLE4=Lord Have Mercy On The Working Man
TTITLE5=I Wish I Could Go Back Home
TTITLE6=A Hundred Years From Now
TTITLE7=Blue Collar Man
TTITLE8=Worth Every Mile
TTITLE9=Leave My Girl Alone
EXTD=YEAR: 1992 ID3G: 2
EXTT0=
EXTT1=
EXTT2=
EXTT3=
EXTT4=
EXTT5=
EXTT6=
EXTT7=
EXTT8=
EXTT9=
PLAYORDER=
